# xmcd CD database file
#
# Track frame offsets:
#	150
#	2315
#	24400
#	43158
#	70020
#	89388
#	112220
#	128055
#	150673
#	169410
#	198388
#	223243
#	246525
#
# Disc length: 3479 seconds
#
# Revision: 0
# Processed by: cddbd v1.5.1PL2 Copyright (c) Steve Scherf et al.
# Submitted via: CDex 1.51
#
DISCID=b60d950d
DTITLE=LA-PPISCH - ART OF GRADATION
DYEAR=1999
DGENRE=Rock
TTITLE0=Tuning
TTITLE1=Hello! Psychedelic Mania
TTITLE2=℃
TTITLE3=Blue Gradation
TTITLE4=For You
TTITLE5=To Be Dreamer 〜in the real life〜
TTITLE6=Dear Smell Blues
TTITLE7=Blackbird (Original Version)
TTITLE8=Picnic
TTITLE9=ムーンライト
TTITLE10=フィルム
TTITLE11=７　-ナナ-
TTITLE12=If
EXTD=YEAR: 1999
EXTT0=
EXTT1=
EXTT2=
EXTT3=
EXTT4=
EXTT5=
EXTT6=
EXTT7=
EXTT8=
EXTT9=
EXTT10=
EXTT11=
EXTT12=
PLAYORDER=
